<?xml version="1.0" encoding="UTF-8"?>
<svg width="305px" height="223px" viewBox="0 0 305 223" version="1.1" xmlns="http://www.w3.org/2000/svg" xmlns:xlink="http://www.w3.org/1999/xlink">
    <!-- Generator: Sketch 50.2 (55047) - http://www.bohemiancoding.com/sketch -->
    <title>Group</title>
    <desc>Created with Sketch.</desc>
    <defs></defs>
    <g id="embellishments" stroke="none" stroke-width="1" fill="none" fill-rule="evenodd">
        <g id="Group" transform="translate(1.000000, 0.000000)" stroke-width="3">
            <path class="path-1" d="M0.906337816,0.549438739 L0.906337816,94.0805715 C0.906337816,110.649114 14.3377953,124.080571 30.9063378,124.080571 L171.71012,124.080571 C188.278662,124.080571 201.71012,137.512029 201.71012,154.080571 L201.71012,190.673396 C201.71012,207.241939 215.141577,220.673396 231.71012,220.673396 L303.040153,220.673396" id="Path-2" stroke="#E3FFF3"></path>
            <path class="path-2" d="M10.9063378,0.549438739 L10.9063378,84.0805715 C10.9063378,100.649114 24.3377953,114.080571 40.9063378,114.080571 L181.71012,114.080571 C198.278662,114.080571 211.71012,127.512029 211.71012,144.080571 L211.71012,180.673396 C211.71012,197.241939 225.141577,210.673396 241.71012,210.673396 L303.040153,210.673396" id="Path-2" stroke="#55CD99"></path>
            <path class="path-3" d="M20.9063378,0.549438739 L20.9063378,74.0805715 C20.9063378,90.649114 34.3377953,104.080571 50.9063378,104.080571 L191.71012,104.080571 C208.278662,104.080571 221.71012,117.512029 221.71012,134.080571 L221.71012,170.673396 C221.71012,187.241939 235.141577,200.673396 251.71012,200.673396 L303.040153,200.673396" id="Path-2" stroke="#41EEA3"></path>
            <path class="path-4" d="M30.9063378,0.549438739 L30.9063378,64.0805715 C30.9063378,80.649114 44.3377953,94.0805715 60.9063378,94.0805715 L201.71012,94.0805715 C218.278662,94.0805715 231.71012,107.512029 231.71012,124.080571 L231.71012,160.673396 C231.71012,177.241939 245.141577,190.673396 261.71012,190.673396 L303.040153,190.673396" id="Path-2" stroke="#96F8CD"></path>
        </g>
    </g>
    <style>
      path {
      animation: draw 8s linear infinite;
      stroke-dasharray:490px;
      stroke-dashoffset: 490px;
      }

      .path-1 {
      animation-delay:.5s;
      }

      .path-2 {
      animation-delay:.05s;
      stroke-dashoffset:250px;
      }
      .path-3 {
      animation-delay:.2s;
      stroke-dasharray:90px;
      }

      @keyframes draw {
      from {
      }
      to {
      stroke-dashoffset: -490px;
      }
      }
  </style>
</svg>