<svg xmlns="http://www.w3.org/2000/svg" xmlns:xlink="http://www.w3.org/1999/xlink" viewBox="0 0 511.99998 639.999975">
  <defs>
    <pattern xlink:href="#a" id="b" patternTransform="translate(-893.94 -898.897) scale(3.43152)"/>
    <pattern id="a" height="5.181" width="30.066" patternUnits="userSpaceOnUse">
      <path d="M7.597.06C5.08-.186 2.657.303-.01 1.79v1.27c2.783-1.63 5.183-2.008 7.482-1.78 2.298.228 4.497 1.08 6.78 1.938 4.568 1.713 9.552 3.458 15.814-.157l-.004-1.27c-6.44 3.71-10.816 1.98-15.37.273-2.28-.853-4.577-1.75-7.095-2z" fill="#33A645"/>
    </pattern>
  </defs>
  <path d="M220.4 156.352c-67.598-.262-131.65 50.563-131.65 129.416 0 155.617 149.103 172.147 256 332.504 106.895-160.357 256-176.887 256-332.504 0-132.805-181.69-186.102-256-49.748-30.19-55.394-78.1-79.49-124.35-79.668z" fill="url(#b)" transform="translate(-88.75 -131.31)"/>
</svg>
