<?xml version="1.0" encoding="UTF-8"?>
<svg width="106px" height="35px" viewBox="0 0 106 35" version="1.1" xmlns="http://www.w3.org/2000/svg" xmlns:xlink="http://www.w3.org/1999/xlink">
    <!-- Generator: Sketch 42 (36781) - http://www.bohemiancoding.com/sketch -->
    <title>logo-google</title>
    <desc>Created with Sketch.</desc>
    <defs></defs>
    <g id="Your-Design-Here" stroke="none" stroke-width="1" fill="none" fill-rule="evenodd">
        <g id="final" transform="translate(-667.000000, -2706.000000)">
            <g id="logos" transform="translate(0.000000, 2472.000000)">
                <g id="logos-v1" transform="translate(130.000000, 212.000000)">
                    <g id="Group-3">
                        <g id="logo-white-google" transform="translate(537.000000, 0.000000)">
                            <rect id="Rectangle" x="0" y="0" width="106" height="72"></rect>
                            <g id="Group-9" transform="translate(0.000000, 22.000000)" fill="#525C65">
                                <path d="M26.1158682,12.4190127 L13.7611706,12.4190127 L13.7611706,16.0633232 L22.5232847,16.0633232 C22.0904306,21.1736472 17.8133434,23.3531044 13.7760235,23.3531044 C8.61073655,23.3531044 4.10332429,19.3132096 4.10332429,13.6506918 C4.10332429,8.13465929 8.39993233,3.88647902 13.7872692,3.88647902 C17.9437301,3.88647902 20.3929632,6.52036766 20.3929632,6.52036766 L22.9599582,3.87793668 C22.9599582,3.87793668 19.6651741,0.231833306 13.6561399,0.231833306 C6.00427549,0.231727845 0.0846765223,6.65145569 0.0846765223,13.5856223 C0.0846765223,20.380264 5.65300585,27.0057463 13.8511364,27.0057463 C21.0614471,27.0057463 26.3394034,22.0957982 26.3394034,14.8351243 C26.3394034,13.3034087 26.115656,12.4180635 26.115656,12.4180635 L26.1158682,12.4190127 L26.1158682,12.4190127 Z" id="path2998"></path>
                                <path d="M36.2363805,9.77974553 C31.1668944,9.77974553 27.5337839,13.7194523 27.5337839,18.3143884 C27.5337839,22.9772413 31.057726,26.9901381 36.2958979,26.9901381 C41.037879,26.9901381 44.9227451,23.3872737 44.9227451,18.4145763 C44.9228512,12.7150417 40.4038749,9.77974553 36.2363805,9.77974553 L36.2363805,9.77974553 L36.2363805,9.77974553 Z M36.286774,13.1598762 C38.779717,13.1598762 41.1421671,15.1634244 41.1421671,18.3917968 C41.1421671,21.5517249 38.7897957,23.6123275 36.2753161,23.6123275 C33.5124759,23.6123275 31.3329279,21.4127273 31.3329279,18.3666971 C31.3329279,15.3860526 33.4855286,13.1598762 36.286774,13.1598762 L36.286774,13.1598762 L36.286774,13.1598762 Z" id="path3000"></path>
                                <path d="M55.1632471,9.77974553 C50.093761,9.77974553 46.4606505,13.7194523 46.4606505,18.3143884 C46.4606505,22.9772413 49.9845926,26.9901381 55.2227645,26.9901381 C59.9647456,26.9901381 63.8496117,23.3872737 63.8496117,18.4145763 C63.8497178,12.7150417 59.3307415,9.77974553 55.1632471,9.77974553 L55.1632471,9.77974553 L55.1632471,9.77974553 Z M55.2136407,13.1598762 C57.7065836,13.1598762 60.0690337,15.1634244 60.0690337,18.3917968 C60.0690337,21.5517249 57.7166623,23.6123275 55.2021828,23.6123275 C52.4393425,23.6123275 50.2597945,21.4127273 50.2597945,18.3666971 C50.2597945,15.3860526 52.4123952,13.1598762 55.2136407,13.1598762 L55.2136407,13.1598762 L55.2136407,13.1598762 Z" id="path3005"></path>
                                <path d="M73.7277044,9.78881517 C69.0745222,9.78881517 65.4170106,13.8399943 65.4170106,18.3871565 C65.4170106,23.5667684 69.65739,27.0015279 73.6474991,27.0015279 C76.1147678,27.0015279 77.4265918,26.0280173 78.3952091,24.9105525 L78.3952091,26.6074201 C78.3952091,29.5763584 76.5817835,31.35422 73.8446175,31.35422 C71.2003878,31.35422 69.8741354,29.3998166 69.4131669,28.2906832 L66.086131,29.673277 C67.2664012,32.1540363 69.642325,34.7412057 73.8720953,34.7412057 C78.4985424,34.7412057 82.0247125,31.8445082 82.0247125,25.769216 L82.0247125,10.3062069 L78.3952091,10.3062069 L78.3952091,11.7638889 C77.2792304,10.5683829 75.7529951,9.78902609 73.7275983,9.78902609 L73.7277044,9.78881517 L73.7277044,9.78881517 Z M74.0645456,13.1620909 C76.3458356,13.1620909 78.6884466,15.0985659 78.6884466,18.4054012 C78.6884466,21.7666544 76.3508219,23.619077 74.014046,23.619077 C71.5333036,23.619077 69.2250663,21.6167943 69.2250663,18.4372505 C69.2250663,15.1334735 71.6223145,13.1619855 74.0643334,13.1619855 L74.0645456,13.1620909 L74.0645456,13.1620909 Z" id="path3007"></path>
                                <path d="M98.1626403,9.76825028 C93.7733081,9.76825028 90.0878944,13.2397102 90.0878944,18.3620568 C90.0878944,23.7822252 94.1957653,26.9968876 98.5842487,26.9968876 C102.246853,26.9968876 104.49483,25.0050456 105.83636,23.2204344 L102.843831,21.2411422 C102.067346,22.4391793 100.769101,23.6099019 98.6024965,23.6099019 C96.1688588,23.6099019 95.0499096,22.2852062 94.3566003,21.0019567 L105.9642,16.2142379 L105.361599,14.8110792 C104.240316,12.0633982 101.624519,9.76877758 98.1630647,9.76877758 L98.1626403,9.76825028 L98.1626403,9.76825028 Z M98.313821,13.0778276 C99.8954361,13.0778276 101.033694,13.9137115 101.517154,14.9159075 L93.7654573,18.1365811 C93.4312684,15.6431666 95.8077227,13.0778276 98.313821,13.0778276 L98.313821,13.0778276 L98.313821,13.0778276 Z" id="path3011"></path>
                                <polygon id="path3015" points="84.5540449 26.4860345 88.3668747 26.4860345 88.3668747 1.12181874 84.5540449 1.12181874 84.5540449 26.4860345"></polygon>
                            </g>
                        </g>
                    </g>
                </g>
                <rect id="Mask-Copy" opacity="0.121376812" x="0" y="0" width="1440" height="385"></rect>
            </g>
        </g>
    </g>
</svg>