<?xml version="1.0" encoding="UTF-8"?>
<svg width="134px" height="25px" viewBox="0 0 134 25" version="1.1" xmlns="http://www.w3.org/2000/svg" xmlns:xlink="http://www.w3.org/1999/xlink">
    <!-- Generator: Sketch 42 (36781) - http://www.bohemiancoding.com/sketch -->
    <title>logo-facebook</title>
    <desc>Created with Sketch.</desc>
    <defs></defs>
    <g id="Your-Design-Here" stroke="none" stroke-width="1" fill="none" fill-rule="evenodd">
        <g id="final" transform="translate(-417.000000, -2707.000000)">
            <g id="logos" transform="translate(0.000000, 2472.000000)">
                <g id="logos-v1" transform="translate(130.000000, 212.000000)">
                    <g id="Group-3">
                        <g id="logo-white-facebook" transform="translate(287.000000, 0.000000)">
                            <rect id="Rectangle" x="0" y="0" width="134" height="72"></rect>
                            <g id="Group-2" transform="translate(0.000000, 23.000000)" fill="#525C65">
                                <path d="M74.4287335,18.6956371 C74.1939823,20.2739641 72.8749911,21.1014111 71.3093742,20.9848203 C70.9184267,20.9561076 70.5640164,20.8795405 70.2461431,20.7612095 C68.984698,20.0712352 68.6028848,18.9157676 68.4923599,18.1901201 C68.4905331,18.1901201 68.4896196,18.1901201 68.4896196,18.1909901 C68.4028439,17.0685856 68.3096742,14.720237 68.8851343,13.6108837 C69.3729052,12.7608145 70.2251343,12.2970613 71.3550457,12.2622581 C72.95994,12.2117934 74.1738868,12.9696339 74.4132052,14.5218585 C74.6251207,15.8887558 74.6342549,17.3296099 74.4287335,18.6956371 M73.6322236,8.32775171 C71.6190266,8.12328267 69.8780314,8.70449679 68.4055842,10.3907138 L68.4055842,9.86605495 L68.4055842,0.763267332 L68.4055842,0.663208015 L68.4055842,0.048060735 L63.0748139,0.663208015 L63.0748139,24.6017471 L68.4055842,24.6017471 L68.4055842,23.1809048 C69.1244526,23.6690202 69.8241391,24.2580651 70.6416578,24.536491 C73.748229,25.5971198 77.8431302,24.7331293 79.2762999,20.7760008 C80.1961227,18.2371044 80.1723736,15.6346921 79.4790811,13.067083 C78.711801,10.2158275 76.7186994,8.64098087 73.6322236,8.32775171" id="Fill-1"></path>
                                <path d="M92.7491915,18.4384412 C92.7318364,18.543721 92.7126544,18.6481307 92.6879918,18.7525404 C92.3335815,20.2499499 91.1917955,21.0608654 89.6691097,20.992999 C88.031332,20.9225225 86.908728,20.0106776 86.7507048,18.4514924 C86.6365262,17.3134264 86.627392,16.1509982 86.7269557,15.011192 C86.8822386,13.2136047 88.0623885,12.229543 89.8335269,12.2634762 C91.2895324,12.2895786 92.326274,13.0752618 92.6962127,14.4082259 C93.031441,15.7498908 92.782075,18.1330427 92.7491915,18.4384412 M92.5235746,8.62392729 C90.6711411,8.15234337 88.800439,8.15756386 86.9525726,8.62653753 C84.1848834,9.32869291 82.3297096,10.9966382 81.7323272,13.6503853 C81.4062331,15.0982001 81.3413797,16.6373735 81.427242,18.1217317 C81.6245426,21.5176579 83.8286462,23.9364831 87.2512638,24.6882331 C87.2987621,24.6986741 87.3490007,24.7073749 87.3974124,24.7178159 L87.396499,24.7178159 C87.396499,24.7178159 87.4065467,24.719556 87.422075,24.7221663 C87.5536087,24.7473986 87.6851425,24.7708908 87.8175896,24.7900326 C87.8614342,24.7935129 87.9071057,24.7969933 87.9500368,24.8013437 L87.9536905,24.8013437 C88.1199346,24.8300563 88.319062,24.8518084 88.5282372,24.8674698 C89.1977805,24.9353361 90.050923,24.9831906 90.762484,24.9040132 C90.7670511,24.9040132 90.7697914,24.9022731 90.7734451,24.9022731 C90.8090688,24.901403 90.845606,24.901403 90.8821431,24.8987927 C94.4152856,24.7239065 97.096199,22.6017788 97.8790075,19.3468058 C98.308319,17.5613995 98.308319,15.7672924 97.8927089,13.980146 C97.2432611,11.1758749 95.4575078,9.37132688 92.5235746,8.62392729" id="Fill-3"></path>
                                <path d="M12.5031043,8.53987746 L8.69867348,8.53987746 L8.69867348,6.12975304 C8.97635583,3.85101085 12.9278487,4.2843112 12.9278487,4.2843112 L12.9287621,4.1285667 L12.9278487,4.11116508 L12.9278487,0.368076534 L12.9269352,0.368076534 L12.9269352,0.368076534 L12.924195,0.368076534 C12.7880941,0.336753617 5.06505385,-1.40862891 3.53049352,4.19034245 C3.53049352,4.19121253 3.53049352,4.19295269 3.52866667,4.19469285 C3.52592638,4.20687399 3.52227267,4.21905512 3.51953238,4.23123626 C3.27838718,4.93078139 3.2948289,8.13702995 3.29756919,8.53987746 L9.13428757e-05,8.53987746 L9.13428757e-05,12.8267666 L3.50217723,12.8267666 L3.50217723,24.4867224 L8.60185003,24.4867224 L8.60185003,12.8267666 L12.5021909,12.8267666 L12.9415501,8.53987746 L12.5031043,8.53987746 Z" id="Fill-5"></path>
                                <path d="M24.2272365,18.672319 C24.0609925,20.1575473 22.7995474,21.0493803 21.3079182,20.992825 C19.7806653,20.9362698 18.7694997,20.1575473 18.4388384,18.7610672 C18.0433238,16.7746723 18.5064322,14.4132724 18.5457096,14.2227246 C18.944878,12.8888904 19.9633511,12.229369 21.4577205,12.2624321 C22.9246871,12.293755 24.0555119,13.1212021 24.2208425,14.5690169 C24.3761254,15.9228629 24.3797791,17.3176028 24.2272365,18.672319 L24.2272365,18.672319 Z M24.6647689,10.5910065 C24.6026558,10.5248803 24.5405426,10.4613644 24.4875637,10.4082894 L24.4875637,10.4074194 C24.4793429,10.3995886 24.4720354,10.392628 24.4638146,10.3839272 C24.3898269,10.3108404 24.3377614,10.2621158 24.3377614,10.2621158 C23.1366026,9.09881751 22.6835419,8.80908053 21.7427103,8.54544598 C18.1255324,7.53006143 14.6042645,9.33460946 13.488968,12.8010122 C12.8038964,14.9309706 12.7938487,17.1235747 13.1957573,19.2805056 C14.0635147,23.9519706 17.7108357,25.5163762 21.599302,24.7454845 C22.7922399,24.5088224 23.6782658,23.8014466 24.5012652,22.8156448 C24.5012652,22.8156448 24.5752529,22.7295067 24.6656823,22.5615811 L24.6656823,24.6175826 L29.6402154,24.6175826 L29.6402154,8.55762711 L24.6656823,8.55762711 L24.6656823,10.5910065 L24.6647689,10.5910065 Z" id="Fill-7"></path>
                                <path d="M44.8341895,23.4664654 C44.603092,22.6625105 44.340938,21.8689966 44.0860913,21.1024552 L43.846773,20.2497758 C43.846773,20.2497758 37.6117082,23.1010313 36.6389066,17.6839069 C36.5493906,16.7894636 36.5767935,15.8663077 36.7055869,14.9840455 C36.948559,13.3187104 38.0154438,12.4268774 39.711681,12.2746132 C40.2853142,12.2224084 40.8817832,12.2485108 41.4490225,12.3398693 C42.2217832,12.4642909 42.9762754,12.6861615 43.8221104,12.88454 C44.1162345,12.0283803 44.4167526,11.1809214 44.6962618,10.3273719 C44.7401063,10.1933794 44.7775569,10.0776587 44.8058732,9.97498909 L44.8067866,9.97498909 L44.9465412,9.46251137 C44.9118309,9.39377497 44.8268821,9.32329841 44.7127035,9.25456201 L44.7127035,9.25543209 C44.5692952,9.14058139 44.3254097,9.04574256 43.9435965,8.91262017 C43.7910539,8.85954523 43.6385112,8.81256085 43.4850552,8.76644656 C43.3480409,8.72555275 43.2585249,8.70119048 43.2585249,8.70119048 L43.2594383,8.70119048 C41.6207471,8.25483892 39.9400382,8.22003568 38.231013,8.39144164 C34.6302768,8.75426542 32.1868548,10.7780739 31.5090907,14.119185 C31.1528534,15.8776187 31.1692952,17.6569344 31.5775978,19.4197185 C32.1895951,22.0604144 33.870304,23.7666433 36.601456,24.5297044 C38.384469,25.0273907 40.2113265,25.0526231 42.0281363,24.7820279 C42.7926762,24.6689173 43.8887907,24.2913022 44.6752529,24.0224471 L44.9748575,23.9223878 L44.8332761,23.4655953 L44.8341895,23.4664654 Z" id="Fill-9"></path>
                                <path d="M56.4536428,14.9940514 L50.693561,14.9940514 C50.7237042,13.9029698 50.8671125,12.8884554 51.8855855,12.2706979 C52.9670852,11.6163969 54.16185,11.5920347 55.2734928,12.1784693 C56.3979237,12.7701244 56.4865262,13.8385839 56.4536428,14.9940514 L56.4536428,14.9940514 Z M61.2482304,17.1840454 C61.2244813,16.0720818 61.2400095,14.9548978 61.0746789,13.862076 C60.6197914,10.8663871 58.7052447,8.97135064 55.6087212,8.47540446 C54.4267444,8.28746696 53.1771738,8.31269931 51.976015,8.42145943 C48.6894983,8.71989722 46.1949243,10.6697488 45.6834042,13.6045321 C45.3728384,15.3847178 45.333561,17.2745338 45.5847539,19.0616802 C45.9638269,21.7511006 47.3385372,23.4642902 49.7161922,24.2873868 L49.7171057,24.2873868 C49.7280668,24.2873868 49.7381145,24.289127 49.7490757,24.2908671 C49.7481622,24.2917372 49.7481622,24.2917372 49.7481622,24.2926073 C50.8333156,24.6014861 56.1467307,25.9248793 60.8307935,23.6835506 L60.6426271,23.0266394 C60.6408003,23.0275095 60.63806,23.0275095 60.6362331,23.0275095 C60.4188371,22.1513379 60.1585099,21.2847372 59.9127975,20.4163964 L59.8863081,20.3311284 C59.8863081,20.3311284 59.7894847,20.3641915 59.6168466,20.4172664 C59.6131929,20.4172664 59.6077123,20.4172664 59.6040586,20.4181365 C59.3994506,20.4686012 59.1975828,20.5286368 58.9966285,20.5921527 C58.9591779,20.6043339 58.9226408,20.6156449 58.8851902,20.6260859 C58.1763695,20.8157635 57.1624635,21.0506854 56.091925,21.1820677 C55.1940245,21.2682057 54.2860763,21.271686 53.3708207,21.196859 C51.8828453,20.9619372 50.744713,20.2032265 50.7995187,18.4091194 L51.6490075,18.4091194 C54.5655855,18.4091194 57.4803367,18.4091194 60.3969148,18.4082494 C60.4663354,18.4082494 60.5366694,18.4091194 60.60609,18.4082494 L60.6051766,18.4091194 C60.6051766,18.4091194 61.2317887,18.4012887 61.2582781,18.3960682 C61.2582781,18.3960682 61.2573647,18.2385836 61.2582781,18.2194418 L61.2482304,17.1840454 Z" id="Fill-11"></path>
                                <polygon id="Fill-13" points="133.93807 8.72537873 128.283945 8.72537873 123.372439 16.0384097 123.372439 0.778928791 123.372439 0.677999392 123.372439 0.0628521123 118.041669 0.677999392 118.041669 24.6174085 123.372439 24.6174085 123.372439 17.2913264 128.283945 24.6278495 133.93807 24.6278495 128.609126 16.6631279"></polygon>
                                <path d="M110.929438,18.4354829 C110.912083,18.5416328 110.892901,18.6451724 110.868239,18.7495821 C110.512915,20.2478617 109.372042,21.057037 107.849357,20.9909109 C106.211579,20.917824 105.088975,20.0068492 104.930952,18.4485341 C104.816773,17.3104681 104.806725,16.1480399 104.905376,15.0091038 C105.063399,13.2106464 106.242635,12.2265848 108.015601,12.2605179 C109.467952,12.2866203 110.506521,13.0723035 110.876459,14.4052676 C111.210774,15.7460625 110.963235,18.1309545 110.929438,18.4354829 M110.704735,8.62183909 C108.852301,8.1493851 106.980686,8.15460558 105.131906,8.62357925 C102.366044,9.32573464 100.51087,10.9936799 99.9134874,13.646557 C99.5864799,15.0952419 99.5216264,16.6335451 99.6084022,18.1187734 C99.8038759,21.5146996 102.009806,23.9343949 105.430597,24.6852749 C105.479922,24.6957158 105.529247,24.7044166 105.578573,24.7148576 L105.577659,24.7148576 C105.577659,24.7148576 105.58588,24.7165978 105.601408,24.719208 C105.732942,24.7444404 105.866303,24.7679326 105.997836,24.7862043 C106.042594,24.7905547 106.087352,24.7949051 106.131197,24.7966452 C106.13211,24.7983854 106.133024,24.7983854 106.134851,24.7983854 C106.302008,24.8270981 106.499309,24.8497202 106.707571,24.8653816 C107.378941,24.9323779 108.232997,24.9811024 108.942731,24.9010549 C108.946384,24.9001849 108.949125,24.9001849 108.953692,24.8993148 C108.991142,24.8984447 109.026766,24.8984447 109.061476,24.8967045 C112.595532,24.7209482 115.277359,22.5988206 116.060168,19.3438475 C116.488566,17.5584412 116.488566,15.7643342 116.074783,13.9771878 C115.422594,11.1729166 113.638668,9.36836861 110.704735,8.62183909" id="Fill-16"></path>
                            </g>
                        </g>
                    </g>
                </g>
                <rect id="Mask-Copy" opacity="0.121376812" x="0" y="0" width="1440" height="385"></rect>
            </g>
        </g>
    </g>
</svg>