<?xml version="1.0" encoding="UTF-8"?>
<svg width="74px" height="53px" viewBox="0 0 74 53" version="1.1" xmlns="http://www.w3.org/2000/svg" xmlns:xlink="http://www.w3.org/1999/xlink">
    <!-- Generator: Sketch 42 (36781) - http://www.bohemiancoding.com/sketch -->
    <title>logo-salesforce</title>
    <desc>Created with Sketch.</desc>
    <defs></defs>
    <g id="Your-Design-Here" stroke="none" stroke-width="1" fill="none" fill-rule="evenodd">
        <g id="final" transform="translate(-916.000000, -2697.000000)">
            <g id="logos" transform="translate(0.000000, 2472.000000)">
                <g id="logos-v1" transform="translate(130.000000, 212.000000)">
                    <g id="Group-3">
                        <g id="logo-white-salesforce" transform="translate(786.000000, 1.000000)">
                            <rect id="Rectangle" x="0" y="0" width="74" height="73"></rect>
                            <g id="Group" transform="translate(0.000000, 12.000000)" fill="#525C65">
                                <path d="M30.7943259,5.79285804 C33.1808444,3.27590618 36.5035111,1.71490119 40.1781778,1.71490119 C45.0630667,1.71490119 49.3249185,4.47192692 51.5944741,8.56487901 C53.5666963,7.67288687 55.7498074,7.17669421 58.0467704,7.17669421 C66.8572148,7.17669421 73.9999556,14.4694816 73.9999556,23.465054 C73.9999556,32.4617511 66.8572148,39.7544635 58.0467704,39.7544635 C56.9715852,39.7544635 55.9206222,39.645673 54.9044,39.437614 C52.9058074,43.0460697 49.0972148,45.4841466 44.7257333,45.4841466 C42.8957333,45.4841466 41.1648444,45.0562573 39.6237333,44.2954736 C37.5976593,49.1192939 32.8772889,52.5015463 27.3758074,52.5015463 C21.6465481,52.5015463 16.7638074,48.8322849 14.8895852,43.6862917 C14.0705481,43.8623359 13.2219556,43.9541068 12.3512148,43.9541068 C5.52995556,43.9541068 2.96296294e-05,38.299175 2.96296294e-05,31.3222625 C2.96296294e-05,26.6467451 2.48462222,22.5645146 6.17617778,20.3804572 C5.4161037,18.6103435 4.99343704,16.656763 4.99343704,14.6027893 C4.99343704,6.57920868 11.4289185,0.074946234 19.3664741,0.074946234 C24.0267704,0.074946234 28.1684741,2.31771004 30.7943259,5.79285804 Z M10.7181926,27.2620975 C10.6718222,27.3848336 10.7350815,27.4104004 10.7498222,27.4317687 C10.8889333,27.5341862 11.0301926,27.6078128 11.1724889,27.6899868 C11.9273037,28.0953832 12.6398963,28.2138457 13.3851556,28.2138457 C14.9030815,28.2138457 15.8454519,27.3965298 15.8454519,26.080997 L15.8454519,26.0553551 C15.8454519,24.8390158 14.7818963,24.3972559 13.7836,24.0782321 L13.6539704,24.0355706 C12.9013037,23.7880741 12.2519704,23.5746168 12.2519704,23.0731758 L12.2519704,23.0464843 C12.2519704,22.6175453 12.6314519,22.3017454 13.2196741,22.3017454 C13.8732296,22.3017454 14.6490815,22.5215757 15.1487111,22.8010871 C15.1487111,22.8010871 15.2952296,22.8971316 15.3490074,22.7531023 C15.3784889,22.6762517 15.6315259,21.9869952 15.6578222,21.9123189 C15.6863407,21.8311947 15.6357481,21.7714386 15.5840444,21.7394987 C15.0137481,21.38846 14.2253037,21.1483862 13.4093778,21.1483862 L13.2576,21.1494358 C11.8682667,21.1494358 10.8984148,21.9987665 10.8984148,23.2161555 L10.8984148,23.2417224 C10.8984148,24.5253153 11.9684148,24.9414334 12.9708593,25.2316663 L13.1321185,25.2818254 C13.862637,25.5090784 14.4919704,25.7043165 14.4919704,26.2250263 L14.4919704,26.2505932 C14.4919704,26.7264673 14.0830074,27.08073 13.4230815,27.08073 C13.1669333,27.08073 12.3499704,27.0754067 11.4676741,26.5109857 C11.3612296,26.4480056 11.2990074,26.4021202 11.2167852,26.3519611 C11.1736,26.3242199 11.0650074,26.2762351 11.0176,26.4213141 L10.7181926,27.2620975 Z M32.9403259,27.2620975 C32.8939556,27.3848336 32.9572148,27.4104004 32.9719556,27.4317687 C33.1110667,27.5341862 33.2523259,27.6078128 33.3946222,27.6899868 C34.149437,28.0953832 34.8620296,28.2138457 35.6072889,28.2138457 C37.1252148,28.2138457 38.0675852,27.3965298 38.0675852,26.080997 L38.0675852,26.0553551 C38.0675852,24.8390158 37.0040296,24.3972559 36.0057333,24.0782321 L35.8761037,24.0355706 C35.123437,23.7880741 34.4741037,23.5746168 34.4741037,23.0731758 L34.4741037,23.0464843 C34.4741037,22.6175453 34.8535852,22.3017454 35.4418074,22.3017454 C36.095363,22.3017454 36.8712148,22.5215757 37.3708444,22.8010871 C37.3708444,22.8010871 37.517363,22.8971316 37.5711407,22.7531023 C37.6006222,22.6762517 37.8536593,21.9869952 37.8799556,21.9123189 C37.9084741,21.8311947 37.8578815,21.7714386 37.8061778,21.7394987 C37.2358815,21.38846 36.447437,21.1483862 35.6315111,21.1483862 L35.4797333,21.1494358 C34.0904,21.1494358 33.1205481,21.9987665 33.1205481,23.2161555 L33.1205481,23.2417224 C33.1205481,24.5253153 34.1905481,24.9414334 35.1929926,25.2316663 L35.3542519,25.2818254 C36.0847704,25.5090784 36.7151407,25.7043165 36.7151407,26.2250263 L36.7151407,26.2505932 C36.7151407,26.7264673 36.3051407,27.08073 35.6452148,27.08073 C35.3890667,27.08073 34.5721037,27.0754067 33.6898074,26.5109857 C33.583363,26.4480056 33.5201037,26.4042195 33.4399556,26.3519611 C33.4125481,26.3338168 33.2839556,26.2836577 33.2397333,26.4213141 L32.9403259,27.2620975 Z M49.3778148,23.3066293 C49.2534444,22.8809143 49.0594444,22.5053584 48.8012222,22.1927075 C48.5429259,21.879007 48.2161852,21.6272368 47.8282593,21.443695 C47.4413704,21.2612779 46.9838889,21.1684573 46.4705556,21.1684573 C45.9561111,21.1684573 45.4986296,21.2612779 45.1117407,21.443695 C44.7238148,21.6272368 44.3970741,21.879007 44.1377407,22.1927075 C43.8805556,22.506408 43.6865556,22.8819639 43.5611481,23.3066293 C43.4378148,23.730245 43.3755926,24.1932981 43.3755926,24.6851421 C43.3755926,25.1770612 43.4378148,25.641164 43.5611481,26.063655 C43.6865556,26.4883203 43.8794444,26.8638763 44.1387778,27.1775768 C44.3970741,27.4912773 44.7248519,27.7419978 45.1117407,27.9202163 C45.4996667,28.0983598 45.9561111,28.189081 46.4705556,28.189081 C46.9838889,28.189081 47.4403333,28.0983598 47.8282593,27.9202163 C48.2150741,27.7419978 48.5429259,27.4912773 48.8012222,27.1775768 C49.0594444,26.8650009 49.2534444,26.48937 49.3778148,26.063655 C49.5021852,25.6401143 49.5644074,25.1759365 49.5644074,24.6851421 C49.5644074,24.1943478 49.5021852,23.730245 49.3778148,23.3066293 Z M59.782837,26.8392541 C59.7406889,26.7144186 59.6215778,26.7613538 59.6215778,26.7613538 C59.4370593,26.8328811 59.2409852,26.8990101 59.0323185,26.9320746 C58.8203926,26.9651391 58.5874296,26.9822337 58.3376519,26.9822337 C57.7240963,26.9822337 57.2371333,26.7976423 56.8881704,26.432733 C56.5382444,26.0678237 56.3421704,25.4778358 56.3442444,24.6797139 C56.3463926,23.9531193 56.5192815,23.4068425 56.8302444,22.9907245 C57.1390593,22.5767057 57.6092074,22.3643731 58.2363926,22.3643731 C58.7592815,22.3643731 59.1577259,22.4251788 59.5752074,22.5585615 C59.5752074,22.5585615 59.6752815,22.6023476 59.722763,22.4700146 C59.8334296,22.1584884 59.9156519,21.9354341 60.0337259,21.5929427 C60.0674296,21.4958485 59.9852074,21.4542367 59.9557259,21.4425404 C59.7912815,21.377461 59.4033556,21.2718195 59.1103185,21.2269838 C58.8362444,21.1843223 58.5158,21.1619044 58.1595037,21.1619044 C57.6271333,21.1619044 57.152763,21.2536753 56.7469111,21.4372171 C56.3421704,21.6196342 55.9984667,21.8714794 55.7265407,22.1851049 C55.4545407,22.4988054 55.2479481,22.8743614 55.1098741,23.2990267 C54.972837,23.7226424 54.9032815,24.1878698 54.9032815,24.6797139 C54.9032815,25.7434765 55.186837,26.6034538 55.7465407,27.2329542 C56.3073556,27.8646289 57.1496519,28.1857521 58.2480222,28.1857521 C58.8973556,28.1857521 59.5635778,28.0523694 60.0421704,27.8614049 C60.0421704,27.8614049 60.1338741,27.8165691 60.0938,27.7088283 L59.782837,26.8392541 Z M66.265837,23.0647485 C66.1582815,22.6539538 65.8916148,22.2388854 65.7166519,22.0489706 C65.4404296,21.748091 65.1705778,21.5379326 64.9028741,21.4205199 C64.5528741,21.2690679 64.1333185,21.1687497 63.673763,21.1687497 C63.1382074,21.1687497 62.6522815,21.259471 62.2580593,21.4472114 C61.8627259,21.6350269 61.5306519,21.8910707 61.2702815,22.2100945 C61.0099111,22.5280687 60.813837,22.9068486 60.6894667,23.3368372 C60.5640593,23.7646515 60.5008,24.2309287 60.5008,24.7228477 C60.5008,25.223239 60.5661333,25.6895161 60.695837,26.1087832 C60.8265037,26.5313492 61.0352444,26.9036811 61.317763,27.2120583 C61.5991704,27.5225349 61.961837,27.7658327 62.3961333,27.935429 C62.8272444,28.1040505 63.3511704,28.1915477 63.9530963,28.1904981 C65.1916889,28.1862244 65.8442074,27.9066381 66.1130222,27.7562358 C66.1604296,27.7295442 66.205763,27.6826091 66.1488,27.5481768 L65.8684296,26.7532788 C65.8262815,26.6348164 65.7071704,26.6786025 65.7071704,26.6786025 C65.4004296,26.793841 64.9639852,27.0007753 63.9467259,26.998676 C63.2816148,26.9976263 62.7882815,26.7991643 62.4793926,26.4886877 C62.1621333,26.1707136 62.0071704,25.7033868 61.979763,25.0439709 L66.2690222,25.0482445 C66.2690222,25.0482445 66.381763,25.0461452 66.3933926,24.9351804 C66.3976148,24.8881703 66.5409481,24.0431882 66.265837,23.0647485 Z M31.9140296,23.0647485 C31.8064741,22.6539538 31.5408444,22.2388854 31.3658815,22.0489706 C31.0897333,21.748091 30.8198074,21.5379326 30.5521037,21.4205199 C30.2021037,21.2690679 29.7825481,21.1687497 29.3229926,21.1687497 C28.7885481,21.1687497 28.3015111,21.259471 27.9072889,21.4472114 C27.5119556,21.6350269 27.1799556,21.8910707 26.9195852,22.2100945 C26.6592148,22.5280687 26.4631407,22.9068486 26.3386963,23.3368372 C26.2143259,23.7646515 26.1500296,24.2309287 26.1500296,24.7228477 C26.1500296,25.223239 26.215363,25.6895161 26.3450667,26.1087832 C26.4757333,26.5313492 26.6844741,26.9036811 26.9669926,27.2120583 C27.2484741,27.5225349 27.6110667,27.7658327 28.045363,27.935429 C28.4764741,28.1040505 29.0004,28.1915477 29.6023259,28.1904981 C30.8409185,28.1862244 31.493437,27.9066381 31.7622519,27.7562358 C31.8096593,27.7295442 31.8549926,27.6826091 31.7981037,27.5481768 L31.5186963,26.7532788 C31.4755111,26.6348164 31.3564,26.6786025 31.3564,26.6786025 C31.0496593,26.793841 30.6142519,27.0007753 29.5949185,26.998676 C28.9308444,26.9976263 28.4375111,26.7991643 28.1286222,26.4886877 C27.811363,26.1707136 27.6564,25.7033868 27.6289926,25.0439709 L31.9182519,25.0482445 C31.9182519,25.0482445 32.0310667,25.0461452 32.0426222,24.9351804 C32.0468444,24.8881703 32.1901778,24.0431882 31.9140296,23.0647485 Z M20.0844593,23.7649964 C19.9105333,23.7521755 19.6849778,23.7447528 19.4150519,23.7447528 C19.0472,23.7447528 18.6919407,23.791688 18.3588296,23.8823342 C18.0236444,23.9730555 17.722163,24.1149854 17.4628296,24.3027259 C17.2024593,24.491591 16.9926815,24.7327146 16.8409037,25.0186739 C16.6891259,25.3046332 16.612163,25.6418013 16.612163,26.0195315 C16.612163,26.4036347 16.6774963,26.7375788 16.808237,27.0107172 C16.9389037,27.2849052 17.1276444,27.5132828 17.3679407,27.689327 C17.606163,27.8653712 17.9003111,27.9944802 18.2418667,28.0723805 C18.5780889,28.1502058 18.9597185,28.1897183 19.3771259,28.1897183 C19.8166815,28.1897183 20.2552,28.1534298 20.6800148,28.0798032 C21.1006074,28.0073012 21.6172,27.9016597 21.7605333,27.8685951 C21.9028296,27.834406 22.0609778,27.7906948 22.0609778,27.7906948 C22.1674222,27.7640033 22.1589778,27.6487649 22.1589778,27.6487649 L22.1569037,23.6785488 C22.1569037,22.8079249 21.9270519,22.1623796 21.4748296,21.7623065 C21.0247556,21.363283 20.3617185,21.161597 19.5046815,21.161597 C19.1832,21.161597 18.6655704,21.2064328 18.3557185,21.2693378 C18.3557185,21.2693378 17.4185333,21.4528796 17.0327556,21.7580329 C17.0327556,21.7580329 16.9483852,21.8113409 16.9948296,21.9308531 L17.2983852,22.7567162 C17.3363111,22.8634073 17.4386074,22.8271188 17.4386074,22.8271188 C17.4386074,22.8271188 17.4712741,22.8142979 17.5092,22.791955 C18.3346074,22.3373741 19.378163,22.3512447 19.378163,22.3512447 C19.8420148,22.3512447 20.1983111,22.44519 20.4386815,22.6318808 C20.6726815,22.8132482 20.7917926,23.0874363 20.7917926,23.6658029 L20.7917926,23.8492697 C20.4228296,23.7959616 20.0844593,23.7649964 20.0844593,23.7649964 Z M54.6791481,21.5279908 C54.7118148,21.4298469 54.6432963,21.3829118 54.6148519,21.3721902 C54.5421111,21.3433993 54.1773704,21.265499 53.895963,21.2473548 C53.3572963,21.2142903 53.0578889,21.3060612 52.7901111,21.4276726 C52.5244815,21.549359 52.2293704,21.7456468 52.0649259,21.9686261 L52.0649259,21.4404935 C52.0649259,21.3668669 52.0132222,21.3081605 51.9415926,21.3081605 L50.8421111,21.3081605 C50.7704074,21.3081605 50.7187778,21.3668669 50.7187778,21.4404935 L50.7187778,27.9159651 C50.7187778,27.9884671 50.7778148,28.0482232 50.8495185,28.0482232 L51.9763333,28.0482232 C52.048037,28.0482232 52.106037,27.9884671 52.106037,27.9159651 L52.106037,24.680891 C52.106037,24.2466287 52.1534444,23.8134161 52.2483333,23.5413274 C52.3410741,23.2724626 52.4675926,23.0569809 52.6235926,22.90223 C52.7806296,22.7486037 52.9587778,22.6408629 53.1538148,22.5800572 C53.3530741,22.5181268 53.5733704,22.4978832 53.7293704,22.4978832 C53.9538889,22.4978832 54.2005556,22.5565146 54.2005556,22.5565146 C54.2827778,22.5661866 54.3291481,22.5149028 54.3565556,22.4391769 C54.4304074,22.2407148 54.6390741,21.6464532 54.6791481,21.5279908 Z M44.1017852,18.52682 C43.9647481,18.4841585 43.8403778,18.4553677 43.6780074,18.4244025 C43.513563,18.394487 43.3174889,18.3795667 43.0951185,18.3795667 C42.3192667,18.3795667 41.7078593,18.6014963 41.2788222,19.0389826 C40.8519333,19.4742945 40.5620074,20.1368594 40.4165259,21.008608 L40.3638593,21.30199 L39.3897852,21.30199 C39.3897852,21.30199 39.2717852,21.2977163 39.2464519,21.427875 L39.0872667,22.3316385 C39.0757111,22.4169614 39.1126,22.4713941 39.2264519,22.4713941 L40.1740815,22.4713941 L39.2127481,27.9043963 C39.1378593,28.3418826 39.0514148,28.7014685 38.9554889,28.9746069 C38.8617111,29.2434717 38.7700074,29.4450827 38.6561556,29.592336 C38.5465259,29.7332164 38.4431926,29.8377332 38.2640074,29.8986139 C38.1164519,29.948698 37.945637,29.9721656 37.7590444,29.9721656 C37.6557852,29.9721656 37.5177111,29.955146 37.4154148,29.9337778 C37.3142296,29.9135342 37.2604519,29.8911163 37.1834889,29.8580518 C37.1834889,29.8580518 37.0728222,29.8153903 37.0286,29.9274048 C36.9937852,30.0202253 36.7408222,30.7233524 36.7102296,30.8098 C36.6806741,30.8961726 36.7228963,30.9634263 36.7766,30.9836698 C36.9031185,31.0285056 36.9969704,31.0583462 37.1687481,31.099958 C37.4069704,31.156565 37.6083037,31.159714 37.7970444,31.159714 C38.1912667,31.159714 38.5517852,31.1031819 38.8500815,30.9943914 C39.1494889,30.8844763 39.4108963,30.6934369 39.6428222,30.4352937 C39.8926741,30.1557074 40.0497111,29.8633751 40.1994148,29.463227 C40.3480074,29.0684772 40.475563,28.5776828 40.5767481,28.0057641 L41.5434148,22.4713941 L42.9559333,22.4713941 C42.9559333,22.4713941 43.0750444,22.4756678 43.0993407,22.3444594 L43.259563,21.4417457 C43.2700815,21.355373 43.2342296,21.30199 43.1193407,21.30199 L41.7479333,21.30199 C41.7552667,21.2710998 41.8174889,20.7824047 41.9745259,20.3225006 C42.0420074,20.1272625 42.1685259,19.9683129 42.2749704,19.8594474 C42.3803778,19.7527562 42.501637,19.6770303 42.6344519,19.6332441 C42.7704519,19.5884833 42.9253407,19.5671151 43.0951185,19.5671151 C43.2237111,19.5671151 43.3512667,19.5820354 43.4471926,19.6023539 C43.5800074,19.6311448 43.631637,19.6460651 43.6664519,19.6567117 C43.8066,19.6994481 43.825637,19.6578363 43.8530444,19.589533 L44.1808222,18.6783469 C44.2146,18.5802031 44.1312667,18.5385913 44.1017852,18.52682 Z M24.9403185,27.9162575 L24.9403185,18.6506957 C24.9403185,18.5781187 24.8886889,18.5194873 24.8169852,18.5194873 L23.6795778,18.5194873 C23.6078741,18.5194873 23.5572815,18.5781187 23.5572815,18.6506957 L23.5572815,27.9162575 C23.5572815,27.9888345 23.6078741,28.0474659 23.6795778,28.0474659 L24.8169852,28.0474659 C24.8886889,28.0474659 24.9403185,27.9888345 24.9403185,27.9162575 Z" id="Combined-Shape"></path>
                                <path d="M48.1107778,24.6851421 C48.1107778,25.4288313 47.9737407,26.0146206 47.7038889,26.4285643 C47.4371481,26.8383094 47.0334444,27.0378211 46.4705556,27.0378211 C45.9065556,27.0378211 45.5049259,26.839359 45.2424815,26.4285643 C44.9768519,26.0156702 44.8418889,25.4288313 44.8418889,24.6851421 C44.8418889,23.9425776 44.9768519,23.357838 45.2424815,22.948093 C45.5049259,22.5426965 45.9065556,22.3452841 46.4705556,22.3452841 C47.0334444,22.3452841 47.4371481,22.5426965 47.7049259,22.948093 C47.9737407,23.357838 48.1107778,23.9425776 48.1107778,24.6851421" id="Path"></path>
                                <path d="M61.999763,23.9727106 C62.059837,23.5598165 62.1726519,23.2162754 62.3465778,22.9484604 C62.6090222,22.5419393 63.0096148,22.31896 63.5725037,22.31896 C64.1354667,22.31896 64.5075407,22.5429889 64.7742074,22.9484604 C64.9513185,23.2162754 65.0282815,23.5747368 65.0588741,23.9727106 L61.999763,23.9727106 Z" id="Path"></path>
                                <path d="M27.6489926,23.9727106 C27.7101778,23.5598165 27.8218815,23.2162754 27.9958074,22.9484604 C28.2583259,22.5419393 28.6588444,22.31896 29.2218074,22.31896 C29.7846963,22.31896 30.1567704,22.5429889 30.4245481,22.9484604 C30.6005481,23.2162754 30.6775111,23.5747368 30.7081037,23.9727106 L27.6489926,23.9727106 Z" id="Path"></path>
                                <path d="M18.3777926,26.8154791 C18.210237,26.6799221 18.1870519,26.6458079 18.1300889,26.5583106 C18.0457926,26.4249279 18.0025333,26.2350132 18.0025333,25.9938896 C18.0025333,25.6118858 18.1269037,25.3376977 18.3852,25.1531062 C18.3820148,25.1541559 18.754163,24.8277094 19.6290519,24.8394057 C20.2436444,24.847953 20.7928296,24.9397239 20.7928296,24.9397239 L20.7928296,26.913623 L20.7938667,26.913623 C20.7938667,26.913623 20.2489037,27.0320854 19.6354222,27.0694236 C18.7626074,27.1227317 18.3746815,26.8144294 18.3777926,26.8154791" id="Path"></path>
                            </g>
                        </g>
                    </g>
                </g>
                <rect id="Mask-Copy" opacity="0.121376812" x="0" y="0" width="1440" height="385"></rect>
            </g>
        </g>
    </g>
</svg>