<?xml version="1.0" encoding="UTF-8"?>
<svg width="171px" height="54px" viewBox="0 0 171 54" version="1.1" xmlns="http://www.w3.org/2000/svg" xmlns:xlink="http://www.w3.org/1999/xlink">
    <!-- Generator: Sketch 42 (36781) - http://www.bohemiancoding.com/sketch -->
    <title>logo-airbnb</title>
    <desc>Created with Sketch.</desc>
    <defs></defs>
    <g id="Your-Design-Here" stroke="none" stroke-width="1" fill="none" fill-rule="evenodd">
        <g id="final" transform="translate(-130.000000, -2693.000000)">
            <g id="logos" transform="translate(0.000000, 2472.000000)">
                <g id="logos-v1" transform="translate(130.000000, 212.000000)">
                    <g id="Group-3">
                        <g id="logo-white-airbnb" transform="translate(0.000000, 1.000000)">
                            <rect id="Rectangle" x="0" y="0" width="171" height="72"></rect>
                            <path d="M90.3808099,22.0819596 C90.3808099,23.9990593 88.836585,25.5433896 86.9196161,25.5433896 C85.0026472,25.5433896 83.4584223,23.9990593 83.4584223,22.0819596 C83.4584223,20.1648599 84.9493981,18.6205295 86.9196161,18.6205295 C88.8898341,18.6737823 90.3808099,20.2181126 90.3808099,22.0819596 Z M76.1100417,29.0580724 L76.1100417,29.9101167 C76.1100417,29.9101167 74.4593185,27.7800059 70.9448756,27.7800059 C65.14072,27.7800059 60.6145435,32.1999858 60.6145435,38.3240543 C60.6145435,44.39487 65.0874708,48.8681027 70.9448756,48.8681027 C74.5125677,48.8681027 76.1100417,46.6847391 76.1100417,46.6847391 L76.1100417,47.5900362 C76.1100417,48.0160584 76.4295365,48.335575 76.8555296,48.335575 L81.1687095,48.335575 L81.1687095,28.3125336 L76.8555296,28.3125336 C76.4295365,28.3125336 76.1100417,28.685303 76.1100417,29.0580724 Z M76.1100417,41.8919899 C75.3113047,43.0635508 73.7138307,44.0753534 71.7968618,44.0753534 C68.3889172,44.0753534 65.7797096,41.9452426 65.7797096,38.3240543 C65.7797096,34.702866 68.3889172,32.5727552 71.7968618,32.5727552 C73.6605815,32.5727552 75.3645538,33.6378106 76.1100417,34.7561187 L76.1100417,41.8919899 Z M84.3636576,28.3125336 L89.4755746,28.3125336 L89.4755746,48.335575 L84.3636576,48.335575 L84.3636576,28.3125336 Z M160.722917,27.7800059 C157.208474,27.7800059 155.557751,29.9101167 155.557751,29.9101167 L155.557751,18.6737823 L150.445834,18.6737823 L150.445834,48.335575 L154.759014,48.335575 C155.185007,48.335575 155.504502,47.9628056 155.504502,47.5900362 L155.504502,46.6847391 L155.504502,46.6847391 C155.504502,46.6847391 157.155225,48.8681027 160.669668,48.8681027 C166.473824,48.8681027 171,44.39487 171,38.3240543 C171,32.2532386 166.473824,27.7800059 160.722917,27.7800059 Z M159.870931,44.0221006 C157.900713,44.0221006 156.356488,43.010298 155.557751,41.8387371 L155.557751,34.702866 C156.356488,33.6378106 158.06046,32.5195024 159.870931,32.5195024 C163.278875,32.5195024 165.888083,34.6496132 165.888083,38.2708015 C165.888083,41.8919899 163.278875,44.0221006 159.870931,44.0221006 Z M147.783377,36.4602074 L147.783377,48.3888277 L142.67146,48.3888277 L142.67146,37.0459878 C142.67146,33.7443161 141.606478,32.4129969 138.731024,32.4129969 C137.186799,32.4129969 135.589325,33.2117884 134.577592,34.3833493 L134.577592,48.335575 L129.465675,48.335575 L129.465675,28.3125336 L133.512609,28.3125336 C133.938602,28.3125336 134.258097,28.685303 134.258097,29.0580724 L134.258097,29.9101167 C135.749073,28.3657864 137.719291,27.7800059 139.689509,27.7800059 C141.925972,27.7800059 143.789692,28.4190391 145.280668,29.6971056 C147.091138,31.1881832 147.783377,33.1052829 147.783377,36.4602074 Z M117.058626,27.7800059 C113.544184,27.7800059 111.89346,29.9101167 111.89346,29.9101167 L111.89346,18.6737823 L106.781543,18.6737823 L106.781543,48.335575 L111.094723,48.335575 C111.520716,48.335575 111.840211,47.9628056 111.840211,47.5900362 L111.840211,46.6847391 L111.840211,46.6847391 C111.840211,46.6847391 113.490934,48.8681027 117.005377,48.8681027 C122.809533,48.8681027 127.335709,44.39487 127.335709,38.3240543 C127.388959,32.2532386 122.862782,27.7800059 117.058626,27.7800059 Z M116.20664,44.0221006 C114.236422,44.0221006 112.692197,43.010298 111.89346,41.8387371 L111.89346,34.702866 C112.692197,33.6378106 114.39617,32.5195024 116.20664,32.5195024 C119.614585,32.5195024 122.223792,34.6496132 122.223792,38.2708015 C122.223792,41.8919899 119.614585,44.0221006 116.20664,44.0221006 Z M102.361865,27.7800059 C103.90609,27.7800059 104.704827,28.0462698 104.704827,28.0462698 L104.704827,32.7857663 C104.704827,32.7857663 100.444896,31.3479415 97.7824396,34.3833493 L97.7824396,48.3888277 L92.6705227,48.3888277 L92.6705227,28.3125336 L96.9837026,28.3125336 C97.4096957,28.3125336 97.7291905,28.685303 97.7291905,29.0580724 L97.7291905,29.9101167 C98.6876749,28.7918085 100.764391,27.7800059 102.361865,27.7800059 Z M49.2724778,46.5249808 C49.0062321,45.8859476 48.7399864,45.1936616 48.4737407,44.6078811 C48.0477477,43.6493313 47.6217546,42.7440342 47.2490106,41.8919899 L47.1957615,41.8387371 C43.5215712,33.8508216 39.5811352,25.7564007 35.4277027,17.7684852 L35.2679553,17.4489686 C34.8419622,16.6501771 34.4159692,15.7981328 33.9899761,14.9460884 C33.4574847,13.9875386 32.9249934,12.975736 32.0730072,12.0171861 C30.3690349,9.88707533 27.9195747,8.7155144 25.3103671,8.7155144 C22.6479104,8.7155144 20.2516993,9.88707533 18.4944778,11.9106806 C17.6957408,12.8692304 17.1100003,13.8810331 16.577509,14.8395829 C16.1515159,15.6916272 15.7255228,16.5436715 15.2995297,17.3424631 L15.1397823,17.6619797 C11.039599,25.6498951 7.04591385,33.7443161 3.37172355,41.7322315 L3.31847441,41.8387371 C2.94573047,42.6907814 2.51973739,43.5960785 2.09374431,44.5546283 C1.82749864,45.1404088 1.56125296,45.779442 1.29500729,46.471728 C0.602768535,48.4420805 0.389771995,50.3059274 0.656017669,52.2230272 C1.24175815,56.2169849 3.90421489,59.5719094 7.5784052,61.0629869 C8.9628827,61.6487674 10.4006093,61.9150312 11.8915851,61.9150312 C12.3175782,61.9150312 12.8500695,61.8617784 13.2760626,61.8085257 C15.0332841,61.5955146 16.8437547,61.0097341 18.6009761,59.9979315 C20.7841906,58.7731178 22.8609069,57.0157764 25.2038688,54.4596435 C27.5468308,57.0157764 29.6767962,58.7731178 31.8067615,59.9979315 C33.563983,61.0097341 35.3744536,61.5955146 37.131675,61.8085257 C37.5576681,61.8617784 38.0901595,61.9150312 38.5161525,61.9150312 C40.0071283,61.9150312 41.4981041,61.6487674 42.8293325,61.0629869 C46.5567719,59.5719094 49.1659795,56.1637321 49.75172,52.2230272 C50.1777131,50.3591802 49.9647165,48.4953333 49.2724778,46.5249808 Z M25.257118,49.2941248 C22.3816647,45.6729365 20.517945,42.2647592 19.8789553,39.3891097 C19.6127097,38.164296 19.5594605,37.0992406 19.7192079,36.1406907 C19.8257062,35.2886464 20.145201,34.5431077 20.5711941,33.9040744 C21.5829277,32.4662496 23.2869,31.5609526 25.257118,31.5609526 C27.227336,31.5609526 28.9845574,32.4129969 29.9430418,33.9040744 C30.3690349,34.5431077 30.6885297,35.2886464 30.795028,36.1406907 C30.9547754,37.0992406 30.9015263,38.2175488 30.6352806,39.3891097 C29.996291,42.2115065 28.1325712,45.6196837 25.257118,49.2941248 Z M46.5035228,51.797005 C46.1307788,54.566149 44.2670591,56.9625236 41.6578515,58.027579 C40.3798723,58.5601067 38.9953947,58.719865 37.6109172,58.5601067 C36.2796889,58.4003484 34.9484605,57.9743263 33.563983,57.1755347 C31.6470141,56.1104793 29.7300453,54.4596435 27.4935816,52.0100161 C31.0080245,47.6965417 33.1379899,43.7558368 33.9367269,40.241154 C34.3094709,38.5903181 34.36272,37.0992406 34.2029726,35.7146686 C33.9899761,34.3833493 33.5107339,33.1585356 32.765246,32.0934803 C31.1145228,29.6971056 28.3455678,28.3125336 25.257118,28.3125336 C22.1686681,28.3125336 19.3997131,29.7503584 17.74899,32.0934803 C17.0035021,33.1585356 16.5242598,34.3833493 16.3112633,35.7146686 C16.0982668,37.0992406 16.1515159,38.6435709 16.577509,40.241154 C17.376246,43.7558368 19.5594605,47.7497945 23.0206543,52.0632688 C20.8374398,54.5128962 18.8672218,56.1637321 16.9502529,57.2287875 C15.5657754,58.027579 14.2345471,58.4536012 12.9033187,58.6133595 C11.465592,58.7731178 10.0811145,58.5601067 8.85638443,58.0808318 C6.24717683,57.0157764 4.38345711,54.6194018 4.01071316,51.8502578 C3.85096576,50.5189385 3.95746403,49.1876193 4.48995538,47.6965417 C4.64970278,47.164014 4.91594846,46.6314863 5.18219413,45.9924531 C5.55493807,45.1404088 5.98093115,44.2351117 6.40692423,43.3298146 L6.46017337,43.2233091 C10.1343637,35.2886464 14.0747996,27.1942254 18.174983,19.3128156 L18.3347304,18.9932989 C18.7607235,18.1945074 19.1867166,17.3424631 19.6127097,16.5436715 C20.0387027,15.6916272 20.517945,14.8928357 21.1036854,14.2005497 C22.2219173,12.9224832 23.7128931,12.2301972 25.3636162,12.2301972 C27.0143394,12.2301972 28.5053152,12.9224832 29.623547,14.2005497 C30.2092875,14.8928357 30.6885297,15.6916272 31.1145228,16.5436715 C31.5405159,17.3424631 31.966509,18.1945074 32.392502,18.9932989 L32.5522494,19.3128156 C36.5991837,27.2474782 40.5396197,35.3418992 44.21381,43.2765619 L44.21381,43.3298146 C44.639803,44.1818589 45.012547,45.1404088 45.4385401,45.9924531 C45.7047857,46.6314863 45.9710314,47.164014 46.1307788,47.6965417 C46.5567719,49.0811137 46.7165193,50.412433 46.5035228,51.797005 Z" id="Shape" fill="#525C65" fill-rule="nonzero"></path>
                        </g>
                    </g>
                </g>
                <rect id="Mask-Copy" opacity="0.121376812" x="0" y="0" width="1440" height="385"></rect>
            </g>
        </g>
    </g>
</svg>