<?xml version="1.0" encoding="UTF-8"?>
<svg width="16px" height="16px" viewBox="0 0 16 16" version="1.1" xmlns="http://www.w3.org/2000/svg" xmlns:xlink="http://www.w3.org/1999/xlink">
    <!-- Generator: Sketch 50.2 (55047) - http://www.bohemiancoding.com/sketch -->
    <title>Instagram</title>
    <desc>Created with Sketch.</desc>
    <defs></defs>
    <g id="Page-1" stroke="none" stroke-width="1" fill="none" fill-rule="evenodd" fill-opacity="0.5">
        <g id="basil-website-v1" transform="translate(-674.000000, -4200.000000)" fill="#FFFFFF">
            <g id="Footer-#19-Copy" transform="translate(0.000000, 4046.000000)">
                <g id="Group-6" transform="translate(566.000000, 60.000000)">
                    <g id="Group-4">
                        <g id="Group-2" transform="translate(30.000000, 94.000000)">
                            <g id="Social">
                                <path d="M92.0981371,0 L79.9018629,0 C78.8514306,0 78,0.849248561 78,1.89749884 L78,14.1025012 C78,15.150315 78.8514306,16 79.9018629,16 L92.0981371,16 C93.1485694,16 94,15.150315 94,14.1025012 L94,1.89749884 C94,0.849248561 93.1485694,0 92.0981371,0 L92.0981371,0 Z M89.5002046,2.49974088 C89.5002046,2.22393148 89.7240815,2.00005455 89.9998909,2.00005455 L91.4998227,2.00005455 C91.7760685,2.00005455 91.9999454,2.22393148 91.9999454,2.49974088 L91.9999454,4.0001091 C91.9999454,4.2759185 91.7760685,4.49979543 91.4998227,4.49979543 L89.9998909,4.49979543 C89.7240815,4.49979543 89.5002046,4.2759185 89.5002046,4.0001091 L89.5002046,2.49974088 L89.5002046,2.49974088 Z M86.0185473,4.94885852 C87.7179172,4.94885852 89.095655,6.32354145 89.095655,8.01854731 C89.095655,9.71398958 87.7179172,11.0882361 86.0185473,11.0882361 C84.3196138,11.0882361 82.941876,9.71398958 82.941876,8.01854731 C82.941876,6.32354145 84.3196138,4.94885852 86.0185473,4.94885852 L86.0185473,4.94885852 Z M92.5000682,13.9999454 C92.5000682,14.2757548 92.2761913,14.5000682 91.9999454,14.5000682 L80.0000546,14.5000682 C79.7238087,14.5000682 79.4999318,14.2757548 79.4999318,13.9999454 L79.4999318,6.49984998 L81.4999864,6.49984998 C81.2394512,6.87472384 81.1512969,7.5742847 81.1512969,8.01854731 C81.1512969,10.695906 83.335079,12.8744511 86.0185473,12.8744511 C88.7024521,12.8744511 90.8862341,10.695906 90.8862341,8.01854731 C90.8862341,7.5742847 90.822955,6.88563402 90.5000136,6.49984998 L92.5000682,6.49984998 L92.5000682,13.9999454 L92.5000682,13.9999454 Z" id="Instagram"></path>
                            </g>
                        </g>
                    </g>
                </g>
            </g>
        </g>
    </g>
</svg>