<?xml version="1.0" encoding="UTF-8"?>
<svg width="17px" height="14px" viewBox="0 0 17 14" version="1.1" xmlns="http://www.w3.org/2000/svg" xmlns:xlink="http://www.w3.org/1999/xlink">
    <!-- Generator: Sketch 50.2 (55047) - http://www.bohemiancoding.com/sketch -->
    <title>Twitter</title>
    <desc>Created with Sketch.</desc>
    <defs></defs>
    <g id="Page-1" stroke="none" stroke-width="1" fill="none" fill-rule="evenodd" fill-opacity="0.5">
        <g id="basil-website-v1" transform="translate(-634.000000, -4201.000000)" fill="#FFFFFF">
            <g id="Footer-#19-Copy" transform="translate(0.000000, 4046.000000)">
                <g id="Group-6" transform="translate(566.000000, 60.000000)">
                    <g id="Group-4">
                        <g id="Group-2" transform="translate(30.000000, 94.000000)">
                            <g id="Social">
                                <path d="M52.3147144,2.11511967 C51.6801591,1.42882317 50.7732625,1 49.7692308,1 C47.8446853,1 46.2828078,2.58251898 46.2828078,4.53420268 C46.2828078,4.81141264 46.3127653,5.08009996 46.3726804,5.33891897 C43.4740608,5.1913428 40.9045203,3.78600493 39.1833231,1.645029 C38.8828398,2.16894685 38.7112648,2.77674538 38.7112648,3.42401717 C38.7112648,4.64948255 39.3267562,5.7314088 40.2631565,6.3652238 C39.6921475,6.34817853 39.1533656,6.18759412 38.682215,5.92473807 L38.682215,5.96779981 C38.682215,7.6808497 39.884602,9.10996123 41.4814301,9.43337285 C41.189117,9.51635641 40.8804635,9.55807247 40.5622781,9.55807247 C40.3375965,9.55807247 40.1183617,9.5365416 39.9059354,9.4952741 C40.3498518,10.8988177 41.6371185,11.9210855 43.1635917,11.9484477 C41.9702828,12.8967031 40.4655969,13.4618884 38.8320028,13.4618884 C38.5505834,13.4618884 38.2723413,13.4457403 38,13.413444 C39.5432676,14.4146295 41.3774864,15 43.3465143,15 C49.7624222,15 53.2697247,9.61548813 53.2697247,4.9446349 C53.2697247,4.79077889 53.2670013,4.63737144 53.2611006,4.48665535 C53.9424078,3.98830541 54.5342963,3.36615296 55,2.65742847 C54.3754305,2.93822691 53.7027474,3.12841626 52.9973834,3.21364263 C53.7177262,2.77674538 54.2705791,2.08416904 54.531119,1.25881901 C53.8566203,1.66341995 53.1113128,1.95767518 52.3147144,2.11511967 Z" id="Twitter"></path>
                            </g>
                        </g>
                    </g>
                </g>
            </g>
        </g>
    </g>
</svg>